HIERARCHY
ROOT Hips
{
  OFFSET 55.5413 98.0565 5.15584
  CHANNELS 6 Xposition Yposition Zposition Zrotation Xrotation Yrotation
  JOINT spine
  {
    OFFSET 0 8.30104 0.477351
    CHANNELS 3 Zrotation Xrotation Yrotation
    JOINT spine1
    {
      OFFSET 0 10.4565 0
      CHANNELS 3 Zrotation Xrotation Yrotation
      JOINT spine2
      {
        OFFSET 0 10.0192 0
        CHANNELS 3 Zrotation Xrotation Yrotation
        JOINT Neck
        {
          OFFSET 0 25.7235 1.22641
          CHANNELS 3 Zrotation Xrotation Yrotation
          JOINT Head
          {
            OFFSET 0 7.77175 0
            CHANNELS 3 Zrotation Xrotation Yrotation
            End Site
            {
              OFFSET 0 18.812 -6.20394
            }
          }
        }
        JOINT RightShoulder
        {
          OFFSET -4.2188 10.82 -0.587439
          CHANNELS 3 Zrotation Xrotation Yrotation
          JOINT RightArm
          {
            OFFSET 0 14.1914 0
            CHANNELS 3 Zrotation Xrotation Yrotation
            JOINT RightArmRoll
            {
              OFFSET 0 7.16408 0
              CHANNELS 3 Zrotation Xrotation Yrotation
              JOINT RightForeArm
              {
                OFFSET 0 20.8665 0
                CHANNELS 3 Zrotation Xrotation Yrotation
                JOINT RightForeArmRoll
                {
                  OFFSET 0 8.03921 0
                  CHANNELS 3 Zrotation Xrotation Yrotation
                  JOINT RightHand
                  {
                    OFFSET 0 16.133 0
                    CHANNELS 3 Zrotation Xrotation Yrotation
                    End Site
                    {
                      OFFSET 0 0 0
                    }
                  }
                }
              }
            }
          }
        }
        JOINT LeftShoulder
        {
          OFFSET 4.2188 10.82 -0.587439
          CHANNELS 3 Zrotation Xrotation Yrotation
          JOINT LeftArm
          {
            OFFSET 0 14.1914 0
            CHANNELS 3 Zrotation Xrotation Yrotation
            JOINT LeftArmRoll
            {
              OFFSET 0 7.16408 0
              CHANNELS 3 Zrotation Xrotation Yrotation
              JOINT LeftForeArm
              {
                OFFSET 0 20.8665 0
                CHANNELS 3 Zrotation Xrotation Yrotation
                JOINT LeftForeArmRoll
                {
                  OFFSET 0 8.03921 0
                  CHANNELS 3 Zrotation Xrotation Yrotation
                  JOINT LeftHand
                  {
                    OFFSET 0 16.133 0
                    CHANNELS 3 Zrotation Xrotation Yrotation
                    End Site
                    {
                      OFFSET 0 0 0
                    }
                  }
                }
              }
            }
          }
        }
      }
    }
  }
  JOINT RightUpLeg
  {
    OFFSET -7.35773 -1.34921 -1.13182
    CHANNELS 3 Zrotation Xrotation Yrotation
    JOINT RightUpLegRoll
    {
      OFFSET 0 18.9168 0
      CHANNELS 3 Zrotation Xrotation Yrotation
      JOINT RightLeg
      {
        OFFSET 0 -23.4256 0
        CHANNELS 3 Zrotation Xrotation Yrotation
        JOINT RightLegRoll
        {
          OFFSET 0 23.5023 0
          CHANNELS 3 Zrotation Xrotation Yrotation
          JOINT RightFoot
          {
            OFFSET 0 19.5617 0
            CHANNELS 3 Zrotation Xrotation Yrotation
            JOINT RightToeBase
            {
              OFFSET 0 16.3526 0
              CHANNELS 3 Zrotation Xrotation Yrotation
              End Site
              {
                OFFSET 0.00693125 7.91943 -0.912837
              }
            }
          }
        }
      }
    }
  }
  JOINT LeftUpLeg
  {
    OFFSET 7.35773 -1.34921 -1.13182
    CHANNELS 3 Zrotation Xrotation Yrotation
    JOINT LeftUpLegRoll
    {
      OFFSET 0 18.9169 0
      CHANNELS 3 Zrotation Xrotation Yrotation
      JOINT LeftLeg
      {
        OFFSET 0 23.4255 0
        CHANNELS 3 Zrotation Xrotation Yrotation
        JOINT LeftLegRoll
        {
          OFFSET 0 23.7195 0
          CHANNELS 3 Zrotation Xrotation Yrotation
          JOINT LeftFoot
          {
            OFFSET 0 19.3444 0
            CHANNELS 3 Zrotation Xrotation Yrotation
            JOINT LeftToeBase
            {
              OFFSET 0 16.3526 0
              CHANNELS 3 Zrotation Xrotation Yrotation
              End Site
              {
                OFFSET -0.0310629 7.91944 -0.912836
              }
            }
          }
        }
      }
    }
  }
}
MOTION
Frames: 8
Frame Time: 0.00208333
41.1086 98.7941 3.25555 0.247328 -3.07923 -0.0387227 0.291445 -0.489776 0.15185 0.583414 3.02431 0.268274 0.580906 4.66931 0.258724 -11.0274 19.1893 5.68329 4.99886 -1.81247 2.76335 53.8079 1.27561 1.4847 147.4 38.6821 -62.7654 8.89729e-006 -1.90117e-006 -5.48927e-006 47.495 61.3674 -33.567 -1.49026e-006 -3.81256e-006 -3.0053 8.02935 -4.95107 0.697348 -64.8284 -0.133237 0.814204 -83.9332 34.024 -3.3179 -4.84431e-007 5.35725e-007 3.23249e-006 -15.698 31.7614 5.54263 1.02058e-005 -2.38138e-006 3.00001 -8.02885 -4.95143 -0.69751 174.396 3.18766 1.9906 -180 7.01529e-015 178.848 176.606 10.515 179.615 1.92193e-007 -8.29158e-006 0.121093 -17.7071 66.6352 18.4691 8.128 25.2331 -3.48411 -175.912 1.00735 0.405133 4.54188e-006 -4.6773e-006 -1.14775 -4.36126 -11.0308 0.279424 -8.84859e-007 -1.88842e-007 -0.150243 19.264 68.6555 -20.0961 -8.13649 25.2327 3.48773 
41.1265 98.8684 3.25032 0.242103 -3.0889 0.00240914 0.293203 -0.485362 0.152472 0.58694 3.0331 0.269346 0.584425 4.6781 0.259737 -10.9456 19.2546 5.72396 4.90161 -1.88832 2.8158 53.9025 1.25666 1.45832 147.112 38.678 -62.4313 8.89729e-006 -1.90117e-006 -5.48927e-006 47.2962 61.3449 -33.4034 -1.49026e-006 -3.81256e-006 -3.0053 8.02935 -4.95107 0.697348 -64.8197 -0.147041 0.820722 -84.0167 33.9642 -3.30411 -4.84431e-007 5.35725e-007 3.23249e-006 -15.6717 31.9516 5.5733 1.02058e-005 -2.38138e-006 3.00001 -8.02885 -4.95143 -0.69751 174.388 3.2615 1.99803 -180 7.01529e-015 178.848 176.617 10.6753 179.614 1.92193e-007 -8.29158e-006 0.123895 -17.7256 66.6605 18.4882 8.128 25.2331 -3.48411 -175.898 0.991325 0.393606 4.54188e-006 -4.6773e-006 -1.14724 -4.36659 -11.0057 0.278911 -8.84859e-007 -1.88842e-007 -0.150243 19.2551 68.6455 -20.0867 -8.13649 25.2327 3.48773 
41.015 98.85 3.2155 0.23674 -3.09887 0.0432994 0.294964 -0.480878 0.153059 0.59048 3.04202 0.270376 0.587959 4.68703 0.26071 -10.8642 19.3198 5.76457 4.8053 -1.96416 2.86816 53.9955 1.23762 1.43205 146.827 38.6703 -62.0976 8.89729e-006 -1.90117e-006 -5.48927e-006 47.0978 61.3221 -33.2401 -1.49026e-006 -3.81256e-006 -3.0053 8.02935 -4.95107 0.697348 -64.811 -0.160962 0.827297 -84.0982 33.9056 -3.2916 -4.84431e-007 5.35725e-007 3.23249e-006 -15.6456 32.1389 5.60381 1.02058e-005 -2.38138e-006 3.00001 -8.02885 -4.95143 -0.69751 174.38 3.33539 2.0046 -180 7.01529e-015 178.848 176.628 10.8364 179.612 1.92193e-007 -8.29158e-006 0.12671 -17.7452 66.687 18.5082 8.128 25.2331 -3.48411 -175.884 0.97418 0.382311 4.54188e-006 -4.6773e-006 -1.14672 -4.3716 -10.9792 0.278484 -8.84859e-007 -1.88842e-007 -0.150243 19.2456 68.6348 -20.0766 -8.13649 25.2327 3.48773 
41.0395 98.8737 3.22049 0.231285 -3.10904 0.0840207 0.296727 -0.476344 0.153622 0.594029 3.05104 0.271379 0.591504 4.69604 0.261655 -10.7832 19.3849 5.80515 4.70968 -2.03999 2.92047 54.0874 1.21853 1.40587 146.544 38.6593 -61.7642 8.89729e-006 -1.90117e-006 -5.48927e-006 46.8998 61.299 -33.0772 -1.49026e-006 -3.81256e-006 -3.0053 8.02935 -4.95107 0.697348 -64.8022 -0.174964 0.833912 -84.1782 33.8478 -3.27997 -4.84431e-007 5.35725e-007 3.23249e-006 -15.6199 32.324 5.63425 1.02058e-005 -2.38138e-006 3.00001 -8.02885 -4.95143 -0.69751 174.373 3.40931 2.01057 -180 7.01529e-015 178.848 176.64 10.9978 179.61 1.92193e-007 -8.29158e-006 0.129533 -17.7656 66.7144 18.529 8.128 25.2331 -3.48411 -175.87 0.956252 0.371178 4.54188e-006 -4.6773e-006 -1.1462 -4.37637 -10.9517 0.278119 -8.84859e-007 -1.88842e-007 -0.150243 19.2356 68.6235 -20.0659 -8.13649 25.2327 3.48773 
41.0819 98.8932 3.33211 0.225785 -3.11933 0.124646 0.298491 -0.471783 0.15417 0.597584 3.0601 0.272364 0.595054 4.70511 0.262583 -10.7025 19.4498 5.84572 4.61451 -2.11582 2.97274 54.1788 1.19939 1.37973 146.263 38.6456 -61.4308 8.89729e-006 -1.90117e-006 -5.48927e-006 46.7021 61.2757 -32.9145 -1.49026e-006 -3.81256e-006 -3.0053 8.02935 -4.95107 0.697348 -64.7934 -0.189013 0.84055 -84.2574 33.7906 -3.26886 -4.84431e-007 5.35725e-007 3.23249e-006 -15.5944 32.5079 5.66474 1.02058e-005 -2.38138e-006 3.00001 -8.02885 -4.95143 -0.69751 174.365 3.48326 2.0162 -180 7.01529e-015 178.848 176.653 11.1596 179.607 1.92193e-007 -8.29158e-006 0.132361 -17.7864 66.7423 18.5503 8.128 25.2331 -3.48411 -175.856 0.937875 0.360139 4.54188e-006 -4.6773e-006 -1.14567 -4.38101 -10.9237 0.277789 -8.84859e-007 -1.88842e-007 -0.150243 19.2253 68.6118 -20.055 -8.13649 25.2327 3.48773 
41.0535 98.8759 3.30565 0.220284 -3.12965 0.165247 0.300256 -0.467214 0.154715 0.60114 3.06918 0.273346 0.598605 4.71419 0.263507 -10.6219 19.5147 5.88633 4.51956 -2.19163 3.02502 54.2699 1.18025 1.3536 145.983 38.6295 -61.0972 8.89729e-006 -1.90117e-006 -5.48927e-006 46.5047 61.2521 -32.7522 -1.49026e-006 -3.81256e-006 -3.0053 8.02935 -4.95107 0.697348 -64.7846 -0.203073 0.847193 -84.3363 33.7334 -3.2579 -4.84431e-007 5.35725e-007 3.23249e-006 -15.5692 32.6914 5.69537 1.02058e-005 -2.38138e-006 3.00001 -8.02885 -4.95143 -0.69751 174.358 3.55721 2.02174 -180 7.01529e-015 178.847 176.666 11.3213 179.605 1.92193e-007 -8.29158e-006 0.135191 -17.8073 66.7703 18.5717 8.128 25.2331 -3.48411 -175.842 0.919387 0.349123 4.54188e-006 -4.6773e-006 -1.14515 -4.38562 -10.8956 0.277467 -8.84859e-007 -1.88842e-007 -0.150243 19.215 68.6001 -20.044 -8.13649 25.2327 3.48773 
41.1028 98.8924 3.34012 0.214828 -3.13991 0.205898 0.30202 -0.462659 0.155266 0.604692 3.07824 0.274336 0.602153 4.72325 0.264439 -10.5414 19.5797 5.927 4.42459 -2.26743 3.07733 54.3614 1.16112 1.32744 145.703 38.6116 -60.7631 8.89729e-006 -1.90117e-006 -5.48927e-006 46.3076 61.2284 -32.59 -1.49026e-006 -3.81256e-006 -3.0053 8.02935 -4.95107 0.697348 -64.7758 -0.21711 0.853825 -84.4157 33.676 -3.2467 -4.84431e-007 5.35725e-007 3.23249e-006 -15.5441 32.8756 5.72626 1.02058e-005 -2.38138e-006 3.00001 -8.02885 -4.95143 -0.69751 174.35 3.63114 2.02747 -180 7.01529e-015 178.847 176.678 11.483 179.603 1.92193e-007 -8.29158e-006 0.138018 -17.8281 66.798 18.5929 8.128 25.2331 -3.48411 -175.829 0.901122 0.338061 4.54188e-006 -4.6773e-006 -1.14462 -4.3903 -10.8677 0.277128 -8.84859e-007 -1.88842e-007 -0.150243 19.2048 68.5886 -20.0332 -8.13649 25.2327 3.48773 
41.091 98.871 3.35245 0.209461 -3.15002 0.246671 0.303782 -0.45814 0.155836 0.608237 3.08723 0.275347 0.605693 4.73224 0.265392 -10.4607 19.6447 5.96775 4.32936 -2.34323 3.12969 54.4536 1.14204 1.30124 145.422 38.5922 -60.4282 8.89729e-006 -1.90117e-006 -5.48927e-006 46.1107 61.2044 -32.428 -1.49026e-006 -3.81256e-006 -3.0053 8.02935 -4.95107 0.697348 -64.767 -0.231089 0.860428 -84.496 33.618 -3.2349 -4.84431e-007 5.35725e-007 3.23249e-006 -15.5193 33.0612 5.75752 1.02058e-005 -2.38138e-006 3.00001 -8.02885 -4.95143 -0.69751 174.343 3.70506 2.03363 -180 7.01529e-015 178.847 176.69 11.6444 179.601 1.92193e-007 -8.29158e-006 0.140839 -17.8484 66.8252 18.6138 8.128 25.2331 -3.48411 -175.815 0.883417 0.326883 4.54188e-006 -4.6773e-006 -1.1441 -4.39513 -10.8405 0.276746 -8.84859e-007 -1.88842e-007 -0.150243 19.195 68.5775 -20.0227 -8.13649 25.2327 3.48773 
